<?xml version="1.0" encoding="UTF-8"?> <svg xmlns="http://www.w3.org/2000/svg" xmlns:xlink="http://www.w3.org/1999/xlink" width="277" height="64" viewBox="0 0 277 64"><defs><clipPath id="clip-path"><rect id="Rectangle_1307" data-name="Rectangle 1307" width="277" height="64" transform="translate(191 1260)" fill="none"></rect></clipPath></defs><g id="Mask_Group_47" data-name="Mask Group 47" transform="translate(-191 -1260)" clip-path="url(#clip-path)"><g id="Group_1801" data-name="Group 1801" transform="translate(193.856 1262.407)"><g id="Group_1800" data-name="Group 1800" transform="translate(0 0)"><path id="Path_6112" data-name="Path 6112" d="M36.171,84.114c0,.526.015,1.054.042,1.587a29.512,29.512,0,0,0,34.928,27.411,1.565,1.565,0,0,0,1.228-1.914l-1.895-7.7a1.683,1.683,0,0,0-1.27-1.252,18.544,18.544,0,0,1-14.7-18.138v-.1A18.542,18.542,0,0,1,69.2,65.873a1.686,1.686,0,0,0,1.27-1.254l1.895-7.7a1.567,1.567,0,0,0-1.228-1.914A29.516,29.516,0,0,0,36.213,82.416c-.027.532-.042,1.061-.042,1.588Z" transform="translate(-36.171 -54.498)" fill="#ff661f"></path><path id="Path_6113" data-name="Path 6113" d="M86.79,79.888v0Z" transform="translate(-27.763 -50.284)" fill="#ff661f"></path><path id="Path_6114" data-name="Path 6114" d="M86.79,79.863v0Z" transform="translate(-27.763 -50.288)" fill="#ff661f"></path><path id="Path_6115" data-name="Path 6115" d="M83.807,67.914l0,.009.006.01Z" transform="translate(-28.258 -52.269)" fill="#ff661f"></path><path id="Path_6116" data-name="Path 6116" d="M74.045,80.356c0-.981,6.5-3.371,9.782-3.371,2.808,0,5.083,1.509,5.083,3.371s-2.275,3.372-5.083,3.372c-3.28,0-9.782-2.345-9.782-3.372" transform="translate(-29.88 -50.762)" fill="#ff661f"></path><path id="Path_6117" data-name="Path 6117" d="M73.251,86.409c.441-.8,6.812.173,9.482,1.644,2.288,1.262,3.464,3.513,2.627,5.029s-3.368,1.726-5.656.464c-2.669-1.472-6.914-6.3-6.453-7.138" transform="translate(-30.017 -49.245)" fill="#ff661f"></path><path id="Path_6118" data-name="Path 6118" d="M69.538,92c.714-.45,5.44,3.18,6.945,5.563,1.29,2.043,1.237,4.392-.117,5.247s-3.5-.108-4.788-2.149c-1.505-2.384-2.787-8.19-2.041-8.662" transform="translate(-30.665 -48.275)" fill="#ff661f"></path><path id="Path_6119" data-name="Path 6119" d="M73.251,74.449c.441.8,6.812-.173,9.482-1.644,2.288-1.262,3.464-3.513,2.627-5.029s-3.368-1.725-5.656-.464c-2.669,1.472-6.914,6.3-6.453,7.138" transform="translate(-30.017 -52.506)" fill="#ff661f"></path><path id="Path_6120" data-name="Path 6120" d="M69.538,69.275c.714.45,5.44-3.18,6.945-5.564,1.29-2.043,1.237-4.392-.117-5.247s-3.5.108-4.788,2.15C70.073,63,68.792,68.8,69.538,69.275" transform="translate(-30.665 -53.891)" fill="#ff661f"></path><path id="Path_6121" data-name="Path 6121" d="M202.484,70.636a10.579,10.579,0,0,0-10.657,10.729v.07a10.617,10.617,0,1,0,10.657-10.8m0,18.913a7.971,7.971,0,0,1-7.917-8.227,7.813,7.813,0,0,1,7.832-8.141,7.957,7.957,0,0,1,7.959,8.141v.071a7.841,7.841,0,0,1-7.874,8.156" transform="translate(-10.315 -51.817)" fill="#505257"></path><path id="Path_6122" data-name="Path 6122" d="M119.159,87.661l-.464.521a10.385,10.385,0,0,1-8.352,4.049A10.592,10.592,0,0,1,99.88,81.543V81.46a10.61,10.61,0,0,1,10.505-10.687,10.743,10.743,0,0,1,8.142,3.755l.477.492-1.882,1.869-.493-.534a8.234,8.234,0,0,0-6.285-3.037,7.851,7.851,0,0,0-7.762,8.114,8.043,8.043,0,0,0,7.844,8.253c2.378,0,4.389-1.012,6.342-3.176l.464-.521Z" transform="translate(-25.588 -51.794)" fill="#505257"></path><path id="Path_6123" data-name="Path 6123" d="M134.933,73.2a8.955,8.955,0,0,0-6.579-2.293,15.589,15.589,0,0,0-7.061,1.745l-.6.28,1.013,2.378.674-.338a12.652,12.652,0,0,1,5.908-1.518c2.8,0,6.13,1,6.13,5.75v.338a23.226,23.226,0,0,0-6.13-.815c-5.569,0-9.169,2.7-9.169,6.861v.07c0,4.5,4.119,6.554,7.959,6.554,7.044,0,9.969-4.245,9.969-8.114V79.131a8.3,8.3,0,0,0-2.109-5.933m-.477,10.987c0,3.192-3.207,5.477-7.313,5.477-2.658,0-5.328-1.264-5.328-4.162,0-3.12,3.318-4.233,6.424-4.233a20.851,20.851,0,0,1,6.217.886Z" transform="translate(-22.393 -51.772)" fill="#505257"></path><path id="Path_6124" data-name="Path 6124" d="M182.951,73.2a8.956,8.956,0,0,0-6.58-2.293,15.589,15.589,0,0,0-7.061,1.745l-.6.28,1.013,2.378.676-.338a12.636,12.636,0,0,1,5.905-1.518c2.8,0,6.13,1,6.13,5.75v.338a23.22,23.22,0,0,0-6.13-.815c-5.569,0-9.169,2.7-9.169,6.861v.07c0,4.5,4.121,6.554,7.959,6.554,7.044,0,9.97-4.245,9.97-8.114V79.131a8.3,8.3,0,0,0-2.109-5.933m-.478,10.987c0,3.192-3.207,5.477-7.313,5.477-2.658,0-5.328-1.264-5.328-4.162,0-3.12,3.318-4.233,6.424-4.233a20.851,20.851,0,0,1,6.216.886Z" transform="translate(-14.417 -51.772)" fill="#505257"></path><path id="Path_6125" data-name="Path 6125" d="M155.389,79.871V91.78h-2.616V80.054c0-4.274-2.237-6.737-6.144-6.737a6.69,6.69,0,0,0-6.512,6.974V91.78H137.5V71.223h2.614v2.686a8.433,8.433,0,0,1,6.667-3.136c5.23,0,8.6,3.572,8.6,9.1" transform="translate(-19.339 -51.794)" fill="#505257"></path><path id="Path_6126" data-name="Path 6126" d="M158.883,74.589V86.906c0,2.335,1.11,3.515,3.29,3.515a6.2,6.2,0,0,0,2.588-.618l1-.464v2.714l-.393.2a7.537,7.537,0,0,1-3.3.717c-3.627,0-5.793-2.223-5.793-5.947V65.66h2.617v6.411h6.947v2.518Z" transform="translate(-16.222 -52.644)" fill="#505257"></path><rect id="Rectangle_1306" data-name="Rectangle 1306" width="2.673" height="29.121" transform="translate(175.084 10.865)" fill="#505257"></rect><path id="Path_6127" data-name="Path 6127" d="M230.622,71.171V82.927a9.4,9.4,0,0,1-9.282,9.252c-5.231,0-8.6-3.572-8.6-9.1V71.171h2.63V82.885c0,4.289,2.237,6.749,6.13,6.749a6.681,6.681,0,0,0,6.51-6.974V71.171Z" transform="translate(-6.842 -51.728)" fill="#505257"></path><path id="Path_6128" data-name="Path 6128" d="M242.069,70.786a9.516,9.516,0,0,0-7.76,3.8V71.235h-2.631V97.854h2.631V88.5a9.687,9.687,0,0,0,7.76,3.741c5.7,0,10.153-4.7,10.153-10.77,0-5.991-4.456-10.686-10.153-10.686m-.11,2.572c4.317,0,7.565,3.5,7.565,8.156v.071c0,4.752-3.109,8.069-7.565,8.069a8.159,8.159,0,0,1,0-16.3" transform="translate(-3.696 -51.792)" fill="#505257"></path><path id="Path_6129" data-name="Path 6129" d="M271.224,81.542c0-5.344-3.249-10.757-9.478-10.757-5.61,0-9.858,4.57-9.858,10.644v.085c0,6.215,4.289,10.729,10.21,10.729a10.26,10.26,0,0,0,8.38-4.234l.423-.548-2.012-1.588-.436.561a8.028,8.028,0,0,1-6.327,3.264c-3.98,0-6.962-2.856-7.44-7.032h16.538Zm-16.538-1.378c.493-4.008,3.334-6.833,6.989-6.833,4.177,0,6.358,3.319,6.765,6.833Z" transform="translate(-0.339 -51.792)" fill="#505257"></path></g></g></g></svg> 